HIERARCHY
ROOT Hips
{
	OFFSET 0.000000 71.427986 0.000000
	CHANNELS 6 Xposition Yposition Zposition Xrotation Yrotation Zrotation
	JOINT Pelvis
	{
		OFFSET 0.000000 0.000000 0.000000
		CHANNELS 3 Xrotation Yrotation Zrotation
		JOINT LeftUpLeg
		{
			OFFSET 6.797100 -2.508499 -1.318700
			CHANNELS 3 Xrotation Yrotation Zrotation
			JOINT LeftLeg
			{
				OFFSET 0.069008 -29.241863 0.690200
				CHANNELS 3 Xrotation Yrotation Zrotation
				JOINT LeftFoot
				{
					OFFSET -0.069008 -29.568123 -0.266800
					CHANNELS 3 Xrotation Yrotation Zrotation
					JOINT LeftToeBase
					{
						OFFSET 3.145500 -8.631000 16.059900
						CHANNELS 3 Xrotation Yrotation Zrotation
						End Site
						{
							OFFSET 0.000000 18.501587 0.000000
						}
					}
				}
			}
			JOINT Left_ShortSleeve
			{
				OFFSET 0.265923 -10.480953 1.153800
				CHANNELS 3 Xrotation Yrotation Zrotation
				End Site
				{
					OFFSET 1.725763 19.823879 0.000000
				}
			}
		}
		JOINT RightUpLeg
		{
			OFFSET -6.797100 -2.508499 -1.318700
			CHANNELS 3 Xrotation Yrotation Zrotation
			JOINT RightLeg
			{
				OFFSET -0.082453 -29.241932 0.688000
				CHANNELS 3 Xrotation Yrotation Zrotation
				JOINT RightFoot
				{
					OFFSET 0.082453 -29.568058 -0.264600
					CHANNELS 3 Xrotation Yrotation Zrotation
					JOINT RightToeBase
					{
						OFFSET -3.115300 -8.682800 16.113400
						CHANNELS 3 Xrotation Yrotation Zrotation
						End Site
						{
							OFFSET 0.000000 18.567114 0.000000
						}
					}
				}
			}
			JOINT Right_ShortSleeve
			{
				OFFSET -0.265923 -10.480953 1.153800
				CHANNELS 3 Xrotation Yrotation Zrotation
				End Site
				{
					OFFSET -1.725766 19.823910 0.000000
				}
			}
		}
	}
	JOINT Spine
	{
		OFFSET 0.000000 13.368103 0.470500
		CHANNELS 3 Xrotation Yrotation Zrotation
		JOINT Spine1
		{
			OFFSET 0.147000 13.837402 0.538800
			CHANNELS 3 Xrotation Yrotation Zrotation
			JOINT Spine2
			{
				OFFSET 0.168000 16.242897 -1.435500
				CHANNELS 3 Xrotation Yrotation Zrotation
				JOINT Neck
				{
					OFFSET 0.217200 18.631500 -1.679100
					CHANNELS 3 Xrotation Yrotation Zrotation
					JOINT Head
					{
						OFFSET 0.000000 6.599396 1.385900
						CHANNELS 3 Xrotation Yrotation Zrotation
						JOINT Hat
						{
							OFFSET -0.532200 27.220596 -10.096100
							CHANNELS 3 Xrotation Yrotation Zrotation
							End Site
							{
								OFFSET 0.000000 22.029861 0.000000
							}
						}
						JOINT HairD
						{
							OFFSET -10.777400 17.437393 -1.325900
							CHANNELS 3 Xrotation Yrotation Zrotation
							JOINT HairD1
							{
								OFFSET -3.290299 -11.051193 1.062200
								CHANNELS 3 Xrotation Yrotation Zrotation
								End Site
								{
									OFFSET 0.000000 11.579437 0.000000
								}
							}
						}
						JOINT HairB
						{
							OFFSET -10.777400 17.437393 1.467900
							CHANNELS 3 Xrotation Yrotation Zrotation
							JOINT HairB1
							{
								OFFSET -1.561200 -12.956299 3.590200
								CHANNELS 3 Xrotation Yrotation Zrotation
								End Site
								{
									OFFSET 0.000000 13.534866 0.000000
								}
							}
						}
						JOINT HairA
						{
							OFFSET 9.713100 17.437393 1.467900
							CHANNELS 3 Xrotation Yrotation Zrotation
							JOINT HairA1
							{
								OFFSET 1.561200 -12.956299 3.590200
								CHANNELS 3 Xrotation Yrotation Zrotation
								End Site
								{
									OFFSET 0.000000 13.534866 0.000000
								}
							}
						}
						JOINT HairC
						{
							OFFSET 9.713100 17.437393 -1.325900
							CHANNELS 3 Xrotation Yrotation Zrotation
							JOINT HairC1
							{
								OFFSET 3.290300 -11.051193 1.062200
								CHANNELS 3 Xrotation Yrotation Zrotation
								End Site
								{
									OFFSET 0.000000 11.579437 0.000000
								}
							}
						}
					}
				}
				JOINT LeftShoulder
				{
					OFFSET 5.101800 15.108002 -2.763700
					CHANNELS 3 Xrotation Yrotation Zrotation
					JOINT LeftArm
					{
						OFFSET 9.825497 2.506317 -1.597400
						CHANNELS 3 Xrotation Yrotation Zrotation
						JOINT LeftForeArm
						{
							OFFSET 21.966244 0.000000 0.000000
							CHANNELS 3 Xrotation Yrotation Zrotation
							JOINT LeftHand
							{
								OFFSET 33.879036 0.000000 0.000000
								CHANNELS 3 Xrotation Yrotation Zrotation
								JOINT LeftHandThumb1
								{
									OFFSET 6.715286 -2.359680 3.363841
									CHANNELS 3 Xrotation Yrotation Zrotation
									JOINT LeftHandThumb2
									{
										OFFSET 2.507072 -1.447464 1.447461
										CHANNELS 3 Xrotation Yrotation Zrotation
										JOINT LeftHandThumb3
										{
											OFFSET 2.898338 -1.673355 1.673357
											CHANNELS 3 Xrotation Yrotation Zrotation
											End Site
											{
												OFFSET -0.295959 3.727692 -0.131651
											}
										}
									}
								}
								JOINT LeftHandIndex1
								{
									OFFSET 14.190811 -0.254547 3.840278
									CHANNELS 3 Xrotation Yrotation Zrotation
									JOINT LeftHandIndex2
									{
										OFFSET 3.551727 0.000000 -0.000000
										CHANNELS 3 Xrotation Yrotation Zrotation
										JOINT LeftHandIndex3
										{
											OFFSET 2.894196 0.000000 0.000000
											CHANNELS 3 Xrotation Yrotation Zrotation
											End Site
											{
												OFFSET -1.000603 2.690872 0.366626
											}
										}
									}
								}
								JOINT LeftHandMiddle1
								{
									OFFSET 13.776489 0.000000 0.000000
									CHANNELS 3 Xrotation Yrotation Zrotation
									JOINT LeftHandMiddle2
									{
										OFFSET 3.438232 0.000000 0.000000
										CHANNELS 3 Xrotation Yrotation Zrotation
										JOINT LeftHandMiddle3
										{
											OFFSET 3.691551 0.000000 0.000000
											CHANNELS 3 Xrotation Yrotation Zrotation
											End Site
											{
												OFFSET -1.082298 3.499527 0.457670
											}
										}
									}
								}
								JOINT LeftHandRing1
								{
									OFFSET 13.966164 -0.268127 -3.067488
									CHANNELS 3 Xrotation Yrotation Zrotation
									JOINT LeftHandRing2
									{
										OFFSET 3.162567 0.000000 0.000000
										CHANNELS 3 Xrotation Yrotation Zrotation
										JOINT LeftHandRing3
										{
											OFFSET 3.324348 0.000000 0.000000
											CHANNELS 3 Xrotation Yrotation Zrotation
											End Site
											{
												OFFSET -0.861900 3.184998 0.405154
											}
										}
									}
								}
								JOINT LeftHandPinky1
								{
									OFFSET 13.131393 -0.168503 -5.746925
									CHANNELS 3 Xrotation Yrotation Zrotation
									JOINT LeftHandPinky2
									{
										OFFSET 2.849182 0.000000 0.000000
										CHANNELS 3 Xrotation Yrotation Zrotation
										JOINT LeftHandPinky3
										{
											OFFSET 2.805038 0.000000 0.000000
											CHANNELS 3 Xrotation Yrotation Zrotation
											End Site
											{
												OFFSET -0.882500 2.642609 0.325652
											}
										}
									}
								}
							}
							JOINT Left_Sleeve
							{
								OFFSET 6.592125 -0.646545 0.805568
								CHANNELS 3 Xrotation Yrotation Zrotation
								End Site
								{
									OFFSET -0.000179 20.275787 -0.000000
								}
							}
						}
					}
				}
				JOINT RightShoulder
				{
					OFFSET -5.731700 15.108002 -2.763700
					CHANNELS 3 Xrotation Yrotation Zrotation
					JOINT RightArm
					{
						OFFSET -9.825497 2.506317 -1.597400
						CHANNELS 3 Xrotation Yrotation Zrotation
						JOINT RightForeArm
						{
							OFFSET -21.966242 0.000000 0.000000
							CHANNELS 3 Xrotation Yrotation Zrotation
							JOINT RightHand
							{
								OFFSET -33.879032 0.000000 0.000000
								CHANNELS 3 Xrotation Yrotation Zrotation
								JOINT RightHandThumb1
								{
									OFFSET -6.715286 -2.359680 3.363841
									CHANNELS 3 Xrotation Yrotation Zrotation
									JOINT RightHandThumb2
									{
										OFFSET -2.507072 -1.447464 1.447461
										CHANNELS 3 Xrotation Yrotation Zrotation
										JOINT RightHandThumb3
										{
											OFFSET -2.898338 -1.673355 1.673357
											CHANNELS 3 Xrotation Yrotation Zrotation
											End Site
											{
												OFFSET 0.295959 3.727692 -0.131651
											}
										}
									}
								}
								JOINT RightHandIndex1
								{
									OFFSET -14.190811 -0.254547 3.840278
									CHANNELS 3 Xrotation Yrotation Zrotation
									JOINT RightHandIndex2
									{
										OFFSET -3.551727 0.000000 -0.000000
										CHANNELS 3 Xrotation Yrotation Zrotation
										JOINT RightHandIndex3
										{
											OFFSET -2.894196 0.000000 0.000000
											CHANNELS 3 Xrotation Yrotation Zrotation
											End Site
											{
												OFFSET 1.000603 2.690872 0.366626
											}
										}
									}
								}
								JOINT RightHandMiddle1
								{
									OFFSET -13.776489 0.000000 0.000000
									CHANNELS 3 Xrotation Yrotation Zrotation
									JOINT RightHandMiddle2
									{
										OFFSET -3.438232 0.000000 0.000000
										CHANNELS 3 Xrotation Yrotation Zrotation
										JOINT RightHandMiddle3
										{
											OFFSET -3.691551 0.000000 0.000000
											CHANNELS 3 Xrotation Yrotation Zrotation
											End Site
											{
												OFFSET 1.082298 3.499527 0.457670
											}
										}
									}
								}
								JOINT RightHandRing1
								{
									OFFSET -13.966164 -0.268127 -3.067488
									CHANNELS 3 Xrotation Yrotation Zrotation
									JOINT RightHandRing2
									{
										OFFSET -3.162567 0.000000 0.000000
										CHANNELS 3 Xrotation Yrotation Zrotation
										JOINT RightHandRing3
										{
											OFFSET -3.324348 0.000000 0.000000
											CHANNELS 3 Xrotation Yrotation Zrotation
											End Site
											{
												OFFSET 0.861900 3.184998 0.405154
											}
										}
									}
								}
								JOINT RightHandPinky1
								{
									OFFSET -13.131393 -0.168503 -5.746925
									CHANNELS 3 Xrotation Yrotation Zrotation
									JOINT RightHandPinky2
									{
										OFFSET -2.849182 0.000000 0.000000
										CHANNELS 3 Xrotation Yrotation Zrotation
										JOINT RightHandPinky3
										{
											OFFSET -2.805038 0.000000 0.000000
											CHANNELS 3 Xrotation Yrotation Zrotation
											End Site
											{
												OFFSET 0.882500 2.642609 0.325652
											}
										}
									}
								}
							}
							JOINT Right_Sleeve
							{
								OFFSET -6.592125 -0.646545 0.805568
								CHANNELS 3 Xrotation Yrotation Zrotation
								End Site
								{
									OFFSET 0.000179 20.275787 -0.000000
								}
							}
						}
					}
				}
				JOINT Bind_Right_JacketString
				{
					OFFSET -3.534800 11.969597 7.200700
					CHANNELS 3 Xrotation Yrotation Zrotation
					JOINT Bind_Right_JacketString1
					{
						OFFSET -0.319900 -6.102600 2.794100
						CHANNELS 3 Xrotation Yrotation Zrotation
						End Site
						{
							OFFSET 0.000000 6.719452 0.000000
						}
					}
				}
				JOINT Bind_Left_JacketString
				{
					OFFSET 2.904800 11.969597 7.200700
					CHANNELS 3 Xrotation Yrotation Zrotation
					JOINT Bind_Left_JacketString1
					{
						OFFSET 0.364800 -5.904503 3.186800
						CHANNELS 3 Xrotation Yrotation Zrotation
						End Site
						{
							OFFSET 0.000000 6.719513 0.000000
						}
					}
				}
				JOINT HairE
				{
					OFFSET 5.915200 17.612701 -11.592200
					CHANNELS 3 Xrotation Yrotation Zrotation
					JOINT HairE1
					{
						OFFSET 0.289200 -7.171898 -1.284500
						CHANNELS 3 Xrotation Yrotation Zrotation
						End Site
						{
							OFFSET 0.000000 7.291756 0.000000
						}
					}
				}
				JOINT HairF
				{
					OFFSET -0.864800 17.612701 -11.592200
					CHANNELS 3 Xrotation Yrotation Zrotation
					JOINT HairF1
					{
						OFFSET 0.000000 -14.087097 -2.127501
						CHANNELS 3 Xrotation Yrotation Zrotation
						End Site
						{
							OFFSET 0.000000 14.246841 0.000000
						}
					}
				}
				JOINT HairG
				{
					OFFSET -8.087700 17.612701 -11.592200
					CHANNELS 3 Xrotation Yrotation Zrotation
					JOINT HairG1
					{
						OFFSET -0.293600 -6.081398 -0.910100
						CHANNELS 3 Xrotation Yrotation Zrotation
						End Site
						{
							OFFSET 0.000000 6.156120 0.000000
						}
					}
				}
			}
		}
	}
	JOINT Pouch
	{
		OFFSET 0.000000 4.394501 10.847300
		CHANNELS 3 Xrotation Yrotation Zrotation
		End Site
		{
			OFFSET 0.000000 21.880577 0.000000
		}
	}
	JOINT Bag
	{
		OFFSET -13.229000 4.813004 -0.593300
		CHANNELS 3 Xrotation Yrotation Zrotation
		End Site
		{
			OFFSET 0.000000 21.880577 0.000000
		}
	}
	JOINT OccupyGuyFacialAnim_Joint
	{
		OFFSET 1.000000 -70.206398 -1.655000
		CHANNELS 3 Xrotation Yrotation Zrotation
		End Site
		{
			OFFSET 0.000000 21.880577 0.000000
		}
	}
}
MOTION
Frames: 4
Frame Time: 0.016667
-0.206855 69.927025 1.283642 -7.176404 -4.189220 2.829148 -0.000001 0.000001 -0.000000 -5.710102 12.015378 4.329823 10.133670 7.554454 1.496255 3.826815 0.161338 -5.846006 -0.000000 0.000000 0.000000 0.000000 0.000000 -0.000000 4.117780 -16.005374 -4.965979 21.782663 -9.158341 -3.384013 -18.797399 -5.646534 7.222393 -0.000000 -0.000002 -0.000000 0.000000 -0.000001 -0.000000 5.267170 2.060763 -1.923334 1.478230 0.730364 -0.788770 1.440799 0.721971 -0.741220 2.260304 5.360284 1.627123 3.299469 -10.639880 2.336762 -0.000000 0.000000 0.000000 -0.000000 0.000000 0.000000 -0.000000 0.000000 0.000000 -0.000000 0.000000 0.000000 0.000000 0.000000 0.000000 -0.000000 0.000000 0.000000 0.000000 0.000000 0.000000 -0.000000 0.000000 0.000000 -0.000000 0.000000 0.000000 -0.595443 -16.331998 -20.041819 11.139997 0.583279 -33.762390 -0.014750 -89.545645 -0.014880 -131.220802 -7.501396 10.656102 -12.800108 -17.470132 4.121655 1.000138 0.731288 -1.438303 0.000001 0.000001 -0.000001 -3.532539 4.254406 -63.954572 3.402091 5.315481 -65.218908 0.000002 0.000001 -0.000000 2.434392 7.296074 -69.364082 3.297868 5.266362 -64.088655 0.000001 -0.000000 0.000001 4.717023 8.075489 -77.582281 2.056296 4.456888 -49.517639 -0.000002 -0.000001 -0.000000 6.410338 8.363769 -80.414576 1.722724 4.149880 -45.074413 0.000001 0.000000 -0.000001 0.000003 -0.000001 0.000001 0.754163 18.436591 11.539475 10.691748 23.557102 38.362198 -0.000214 97.963853 0.000225 -34.546895 -20.180677 22.179147 20.470557 7.475554 18.843589 4.151709 -12.160918 -33.847989 0.000001 -0.000001 -0.000001 -0.887082 1.427987 12.684527 1.917391 -3.767450 53.934322 -0.000002 -0.000001 0.000002 0.770891 -5.199600 54.618820 5.563890 -4.568237 101.238594 -0.000000 -0.000001 -0.000001 6.934467 -8.544245 63.908762 2.909287 -4.317416 67.934714 0.000001 0.000001 -0.000002 8.373402 -8.171768 73.989923 2.173683 -3.940967 57.745390 -0.000001 0.000002 -0.000001 -0.000001 0.000000 -0.000001 -0.000000 -0.000000 -0.000000 -0.000000 -0.000000 -0.000000 -0.000000 -0.000000 -0.000000 -0.000000 -0.000000 -0.000000 -0.000000 -0.000000 -0.000000 -0.000000 -0.000000 -0.000000 -0.000000 -0.000000 -0.000000 -0.000000 -0.000000 -0.000000 -0.000000 -0.000000 -0.000000 -0.000000 -0.000000 -0.000000 -0.000001 0.000001 -0.000000 -0.000001 0.000001 -0.000000 -0.000001 0.000001 -0.000000 
-0.093422 69.846558 1.249427 -7.093922 -4.350676 2.874129 0.000001 0.000000 0.000000 -6.503767 11.953551 4.331064 11.550021 7.346611 1.496334 3.138896 0.583377 -5.870223 0.000000 -0.000000 0.000000 -0.000000 0.000000 -0.000000 3.487769 -15.879522 -5.282356 22.649751 -9.064760 -3.381860 -19.121499 -5.680681 7.344177 -0.000000 -0.000000 -0.000000 -0.000000 0.000001 -0.000000 5.266781 1.991865 -1.960458 1.478230 0.635007 -0.779718 1.440799 0.631946 -0.712957 2.269833 5.220007 1.536724 3.181580 -10.468704 2.168119 0.000000 -0.000000 -0.000000 0.000000 -0.000000 -0.000000 0.000000 -0.000000 -0.000000 0.000000 -0.000000 -0.000000 0.000000 -0.000000 -0.000000 0.000000 -0.000000 -0.000000 0.000000 -0.000000 -0.000000 0.000000 -0.000000 -0.000000 0.000000 -0.000000 -0.000000 -0.595443 -16.331998 -20.041821 11.399583 0.974259 -33.753924 0.012110 -89.758528 0.012535 -131.360001 -7.634386 10.579082 -12.800107 -17.470132 4.121654 1.000139 0.731291 -1.438305 0.000001 0.000001 -0.000000 -3.532540 4.254407 -63.954572 3.402094 5.315481 -65.218908 -0.000001 -0.000000 0.000001 2.434390 7.296070 -69.364075 3.297869 5.266363 -64.088655 0.000001 0.000000 0.000001 4.717022 8.075489 -77.582281 2.056295 4.456892 -49.517639 -0.000000 -0.000000 -0.000001 6.410338 8.363769 -80.414570 1.722723 4.149882 -45.074409 0.000002 0.000000 0.000001 0.000002 0.000001 -0.000000 0.751042 18.451083 11.540464 10.590262 23.808737 38.571926 -0.000111 97.773133 0.000085 -34.403017 -20.303934 22.406533 20.470553 7.475552 18.843590 4.151709 -12.160920 -33.847989 -0.000000 0.000000 -0.000002 -0.887080 1.427985 12.684530 1.917390 -3.767451 53.934322 -0.000002 0.000001 0.000000 0.770893 -5.199607 54.618823 5.563892 -4.568237 101.238601 -0.000001 0.000002 -0.000004 6.934469 -8.544251 63.908762 2.909286 -4.317414 67.934714 0.000001 0.000000 -0.000000 8.373403 -8.171769 73.989923 2.173682 -3.940968 57.745390 -0.000002 0.000000 -0.000003 0.000004 -0.000002 0.000000 -0.000000 -0.000000 -0.000000 -0.000000 -0.000000 -0.000000 -0.000000 -0.000000 -0.000000 -0.000000 -0.000000 -0.000000 -0.000000 -0.000000 -0.000000 -0.000000 -0.000000 -0.000000 -0.000000 -0.000000 -0.000000 -0.000000 -0.000000 -0.000000 -0.000000 -0.000000 -0.000000 -0.000000 -0.000000 -0.000000 0.000001 0.000000 0.000000 0.000001 0.000000 0.000000 0.000001 0.000000 0.000000 
0.008911 69.769844 1.212656 -7.010873 -4.506962 2.922525 -0.000000 0.000000 -0.000000 -7.188909 11.903205 4.316160 12.743574 7.116817 1.496399 2.567376 1.017579 -5.884393 0.000000 0.000002 -0.000000 -0.000000 -0.000000 -0.000000 2.888212 -15.755132 -5.578883 23.459562 -8.975146 -3.380101 -19.421701 -5.711355 7.451201 0.000000 0.000002 0.000000 0.000000 0.000001 -0.000000 5.266502 1.929727 -1.998988 1.478231 0.545823 -0.771255 1.440799 0.547799 -0.686543 2.278950 5.079157 1.446695 3.068803 -10.293894 2.008880 0.000000 0.000000 -0.000000 0.000000 0.000000 -0.000000 0.000000 0.000000 0.000000 0.000000 0.000000 -0.000000 0.000000 0.000000 -0.000000 0.000000 0.000000 -0.000000 0.000000 0.000000 -0.000000 0.000000 0.000000 -0.000000 0.000000 0.000000 -0.000000 -0.595443 -16.331997 -20.041822 11.673891 1.386658 -33.751086 -0.059211 -89.979601 -0.060743 -131.507206 -7.772079 10.489904 -12.800107 -17.470133 4.121654 1.000138 0.731288 -1.438308 0.000001 -0.000000 -0.000000 -3.532538 4.254407 -63.954579 3.402092 5.315482 -65.218908 0.000001 0.000002 0.000000 2.434391 7.296071 -69.364082 3.297867 5.266362 -64.088655 -0.000001 0.000000 0.000002 4.717024 8.075488 -77.582275 2.056292 4.456890 -49.517642 0.000001 0.000001 -0.000001 6.410340 8.363770 -80.414570 1.722724 4.149880 -45.074406 0.000001 0.000000 0.000001 0.000006 -0.000001 0.000001 0.748014 18.465152 11.541426 10.484195 24.073582 38.792944 -0.000107 97.573835 0.000100 -34.246855 -20.433745 22.645885 20.470557 7.475553 18.843594 4.151713 -12.160917 -33.847983 0.000001 0.000000 -0.000004 -0.887081 1.427984 12.684529 1.917391 -3.767451 53.934326 0.000000 0.000000 -0.000001 0.770892 -5.199605 54.618823 5.563890 -4.568238 101.238601 -0.000000 -0.000001 -0.000001 6.934469 -8.544250 63.908762 2.909287 -4.317413 67.934708 -0.000001 0.000000 0.000002 8.373402 -8.171772 73.989923 2.173686 -3.940968 57.745384 -0.000000 -0.000001 0.000000 0.000002 0.000001 0.000003 -0.000000 -0.000000 0.000000 -0.000000 0.000000 0.000000 -0.000000 -0.000000 -0.000000 -0.000000 -0.000000 -0.000000 -0.000000 -0.000000 0.000000 -0.000000 0.000000 0.000000 -0.000000 -0.000000 -0.000000 -0.000000 -0.000000 -0.000000 -0.000000 -0.000000 0.000000 -0.000000 0.000000 0.000000 -0.000000 0.000000 -0.000000 -0.000000 0.000000 -0.000000 -0.000000 0.000000 -0.000000 
0.105646 69.695168 1.174595 -6.927469 -4.660642 2.972830 -0.000000 -0.000000 0.000000 -7.807339 11.860565 4.290902 13.800740 6.869175 1.499210 2.066828 1.464391 -5.893334 0.000000 -0.000002 -0.000000 -0.000001 -0.000000 -0.000000 2.309636 -15.631731 -5.863177 24.229574 -8.886019 -3.378932 -19.704548 -5.739781 7.549429 0.000000 -0.000002 -0.000000 0.000000 0.000003 -0.000000 5.266274 1.870973 -2.038293 1.478230 0.459727 -0.763087 1.440798 0.466592 -0.661054 2.287673 4.938015 1.356870 2.959047 -10.117156 1.854505 0.000000 0.000001 -0.000000 0.000000 0.000001 -0.000000 0.000000 0.000001 -0.000000 0.000000 0.000001 -0.000000 0.000000 0.000001 0.000000 0.000000 0.000001 -0.000000 0.000000 0.000001 0.000000 0.000000 0.000001 -0.000000 0.000000 0.000001 -0.000000 -0.595443 -16.332000 -20.041819 11.962416 1.823209 -33.756140 -0.015274 -90.210270 -0.017230 -131.660707 -7.915242 10.391282 -12.800107 -17.470133 4.121656 1.000137 0.731290 -1.438311 0.000001 0.000002 0.000002 -3.532538 4.254405 -63.954572 3.402092 5.315483 -65.218901 0.000001 0.000001 -0.000000 2.434391 7.296071 -69.364082 3.297867 5.266363 -64.088655 0.000001 -0.000000 0.000001 4.717022 8.075489 -77.582281 2.056292 4.456886 -49.517639 0.000000 0.000001 0.000001 6.410337 8.363767 -80.414570 1.722723 4.149881 -45.074406 -0.000000 0.000000 -0.000002 -0.000000 0.000002 0.000001 0.744928 18.479488 11.542404 10.372839 24.349269 39.024385 0.000402 97.366833 -0.000397 -34.080810 -20.568797 22.896748 20.470555 7.475554 18.843590 4.151712 -12.160918 -33.847989 0.000000 0.000002 0.000002 -0.887081 1.427987 12.684530 1.917391 -3.767453 53.934333 0.000001 -0.000000 0.000002 0.770893 -5.199605 54.618817 5.563889 -4.568238 101.238601 -0.000002 -0.000000 -0.000001 6.934469 -8.544252 63.908762 2.909286 -4.317415 67.934714 -0.000002 0.000002 -0.000003 8.373405 -8.171773 73.989923 2.173683 -3.940968 57.745390 -0.000003 -0.000000 0.000000 0.000002 -0.000001 0.000002 -0.000000 -0.000000 0.000000 -0.000000 -0.000000 0.000000 -0.000000 -0.000000 0.000000 -0.000000 -0.000000 0.000000 -0.000000 -0.000000 0.000000 -0.000000 -0.000000 0.000000 -0.000000 -0.000000 0.000000 -0.000000 -0.000000 0.000000 -0.000000 -0.000000 0.000000 -0.000000 -0.000000 0.000000 -0.000000 -0.000000 0.000000 -0.000000 -0.000000 0.000000 -0.000000 -0.000000 0.000000 
